<svg id="visual" viewBox="0 0 960 540" width="960" height="540" xmlns="http://www.w3.org/2000/svg" xmlns:xlink="http://www.w3.org/1999/xlink" version="1.1"><g><g transform="translate(713 158)"><path d="M84.3 -73C100.8 -46.4 100.1 -11.9 91.1 18.1C82.1 48 64.8 73.4 39.2 88.3C13.6 103.3 -20.3 107.9 -49 96.2C-77.8 84.5 -101.5 56.5 -106 26.9C-110.6 -2.7 -96.1 -33.9 -75.2 -61.4C-54.4 -89 -27.2 -112.9 3.3 -115.6C33.8 -118.2 67.7 -99.6 84.3 -73Z" fill="#068FFF"></path></g><g transform="translate(72 194)"><path d="M70.8 -52.2C87.6 -35.5 94.1 -6.3 86.4 16.6C78.6 39.4 56.8 55.9 33.9 64.7C11.1 73.6 -12.8 74.7 -37.3 66.9C-61.8 59.1 -87 42.4 -92.4 20.6C-97.7 -1.1 -83.2 -27.9 -64.5 -45.1C-45.7 -62.4 -22.9 -70 2.1 -71.7C27 -73.3 54.1 -69 70.8 -52.2Z" fill="#068FFF"></path></g><g transform="translate(537 401)"><path d="M51.9 -41C64.4 -25.6 69.9 -4.2 65.4 14.6C60.8 33.3 46.2 49.5 28.5 57.3C10.8 65 -10 64.5 -27.3 56.3C-44.6 48.1 -58.5 32.3 -62.9 14C-67.4 -4.2 -62.4 -25 -50.3 -40.3C-38.3 -55.6 -19.1 -65.4 0.3 -65.6C19.7 -65.8 39.3 -56.4 51.9 -41Z" fill="#068FFF"></path></g><g transform="translate(370 156)"><path d="M56.8 -46.5C68 -31.1 67.8 -7.8 61.6 11.9C55.3 31.6 43.1 47.8 26.2 56.8C9.3 65.9 -12.1 67.8 -30.2 60.1C-48.2 52.4 -62.7 35 -67.8 14.9C-72.9 -5.3 -68.6 -28.2 -55.7 -44C-42.8 -59.7 -21.4 -68.3 0.7 -68.8C22.7 -69.4 45.5 -61.9 56.8 -46.5Z" fill="#068FFF"></path></g><g transform="translate(889 425)"><path d="M69.5 -50C89.6 -30.2 105 -1.4 99.6 22.9C94.3 47.2 68 67 39.1 80.6C10.3 94.2 -21.2 101.8 -44.5 91.1C-67.8 80.3 -82.9 51.4 -90 20.5C-97.1 -10.4 -96.2 -43.2 -79.8 -62.1C-63.5 -81.1 -31.7 -86.3 -3.5 -83.5C24.7 -80.7 49.4 -69.9 69.5 -50Z" fill="#068FFF"></path></g><g transform="translate(67 524)"><path d="M69.7 -56.8C91.3 -28.5 110.4 0.5 106.3 26.6C102.2 52.6 74.9 75.6 44.3 89.3C13.8 102.9 -19.9 107.1 -42.4 94C-65 80.9 -76.4 50.5 -81 21.1C-85.6 -8.2 -83.5 -36.5 -68.8 -63.2C-54.2 -89.8 -27.1 -114.8 -1.5 -113.6C24.1 -112.3 48.1 -85 69.7 -56.8Z" fill="#068FFF"></path></g></g></svg>